<svg width="136" height="31" viewBox="0 0 136 31" fill="none" xmlns="http://www.w3.org/2000/svg">
<path d="M44.5046 3.95931C44.5046 4.91069 44.2128 5.67265 43.6381 6.24092C42.9773 6.91458 42.1166 7.25354 41.0619 7.25354C40.0539 7.25354 39.1933 6.90888 38.4873 6.22952C37.7798 5.5402 37.4268 4.69421 37.4268 3.68158C37.4268 2.66896 37.7798 1.82297 38.4873 1.13934C39.1933 0.454283 40.0539 0.109619 41.0619 0.109619C41.5637 0.109619 42.0422 0.210739 42.4988 0.398737C42.9539 0.58816 43.3244 0.84452 43.5928 1.1607L42.9831 1.76172C42.5148 1.22194 41.8774 0.955611 41.0619 0.955611C40.3267 0.955611 39.6893 1.20627 39.1481 1.71187C38.6127 2.2189 38.3443 2.87547 38.3443 3.68158C38.3443 4.48769 38.6127 5.14996 39.1481 5.65698C39.6893 6.15689 40.3267 6.41325 41.0619 6.41325C41.8424 6.41325 42.4988 6.15689 43.0166 5.65129C43.358 5.31659 43.552 4.85514 43.6031 4.26551H41.0619V3.44231H44.452C44.4929 3.62034 44.5046 3.79267 44.5046 3.95931Z" fill="white"/>
<path d="M49.8829 1.10515H46.6985V3.26997H49.5693V4.09317H46.6985V6.258H49.8829V7.09687H45.797V0.266278H49.8829V1.10515Z" fill="white"/>
<path d="M53.6785 7.09687H52.777V1.10515H50.8238V0.266278H55.6332V1.10515H53.6785V7.09687Z" fill="white"/>
<path d="M59.1138 7.09687V0.266278H60.0138V7.09687H59.1138Z" fill="white"/>
<path d="M64.0035 7.09687H63.1093V1.10515H61.1487V0.266278H65.964V1.10515H64.0035V7.09687Z" fill="white"/>
<path d="M75.0695 6.21813C74.3795 6.90888 73.5247 7.25354 72.505 7.25354C71.4795 7.25354 70.6247 6.90888 69.9347 6.21813C69.2462 5.5288 68.9034 4.68281 68.9034 3.68158C68.9034 2.68035 69.2462 1.83436 69.9347 1.14503C70.6247 0.454282 71.4795 0.109619 72.505 0.109619C73.5189 0.109619 74.3737 0.454282 75.0637 1.15073C75.758 1.84575 76.1008 2.68605 76.1008 3.68158C76.1008 4.68281 75.758 5.5288 75.0695 6.21813ZM70.6014 5.64559C71.1207 6.15689 71.7523 6.41325 72.505 6.41325C73.2519 6.41325 73.8894 6.15689 74.4029 5.64559C74.9207 5.13429 75.1833 4.47773 75.1833 3.68158C75.1833 2.88544 74.9207 2.22887 74.4029 1.71757C73.8894 1.20628 73.2519 0.949913 72.505 0.949913C71.7523 0.949913 71.1207 1.20628 70.6014 1.71757C70.0835 2.22887 69.821 2.88544 69.821 3.68158C69.821 4.47773 70.0835 5.13429 70.6014 5.64559Z" fill="white"/>
<path d="M77.3655 7.09687V0.266278H78.4596L81.8614 5.57865H81.9008L81.8614 4.26551V0.266278H82.7614V7.09687H81.822L78.2597 1.52245H78.2204L78.2597 2.84128V7.09687H77.3655Z" fill="white"/>
<path d="M68.6396 14.3556C65.8969 14.3556 63.6563 16.7695 63.6563 20.1001C63.6563 23.4037 65.8969 25.8429 68.6396 25.8429C71.3881 25.8429 73.6287 23.4037 73.6287 20.1001C73.6287 16.7695 71.3881 14.3556 68.6396 14.3556ZM68.6396 23.5809C67.1347 23.5809 65.84 22.1444 65.84 20.1001C65.84 18.0288 67.1347 16.6176 68.6396 16.6176C70.1445 16.6176 71.4451 18.0288 71.4451 20.1001C71.4451 22.1444 70.1445 23.5809 68.6396 23.5809V23.5809ZM57.7666 14.3556C55.018 14.3556 52.7833 16.7695 52.7833 20.1001C52.7833 23.4037 55.018 25.8429 57.7666 25.8429C60.5137 25.8429 62.7499 23.4037 62.7499 20.1001C62.7499 16.7695 60.5137 14.3556 57.7666 14.3556ZM57.7666 23.5809C56.2602 23.5809 54.9611 22.1444 54.9611 20.1001C54.9611 18.0288 56.2602 16.6176 57.7666 16.6176C59.2715 16.6176 60.5662 18.0288 60.5662 20.1001C60.5662 22.1444 59.2715 23.5809 57.7666 23.5809ZM44.8282 16.1163V18.5572H49.8684C49.7209 19.9212 49.3268 20.9239 48.7225 21.6228C47.9869 22.4668 46.841 23.4037 44.8282 23.4037C41.7264 23.4037 39.2975 20.5086 39.2975 16.9215C39.2975 13.3343 41.7264 10.4393 44.8282 10.4393C46.5053 10.4393 47.7256 11.1972 48.6262 12.1797L50.1136 10.4595C48.8539 9.06855 47.1782 8 44.8282 8C40.5747 8 37 12.0024 37 16.9215C37 21.8405 40.5747 25.8429 44.8282 25.8429C47.1271 25.8429 48.8539 24.9719 50.2114 23.3378C51.6024 21.7291 52.036 19.4671 52.036 17.6406C52.036 17.0734 51.9951 16.5518 51.9221 16.1163H44.8282ZM97.735 18.0086C97.3248 16.724 96.0593 14.3556 93.4816 14.3556C90.9272 14.3556 88.8004 16.6835 88.8004 20.1001C88.8004 23.3176 90.9053 25.8429 93.7268 25.8429C96.0082 25.8429 97.3248 24.2342 97.8664 23.2973L96.1732 21.9924C95.6083 22.9479 94.839 23.5809 93.7268 23.5809C92.6218 23.5809 91.8292 22.9952 91.3213 21.8405L97.9642 18.6619L97.735 18.0086V18.0086ZM90.9622 19.9212C90.9053 17.7064 92.4496 16.572 93.556 16.572C94.423 16.572 95.1587 17.0734 95.4039 17.7908L90.9622 19.9212V19.9212ZM85.5629 25.4935H87.7466V8.61277H85.5629V25.4935ZM81.9867 15.6352H81.9137C81.4233 14.9633 80.4877 14.3556 79.3024 14.3556C76.8152 14.3556 74.541 16.881 74.541 20.1187C74.541 23.3378 76.8152 25.8429 79.3024 25.8429C80.4877 25.8429 81.4233 25.2302 81.9137 24.5381H81.9867V25.3618C81.9867 27.558 80.9723 28.738 79.336 28.738C78.0019 28.738 77.1742 27.6239 76.8327 26.687L74.9337 27.6036C75.481 29.1262 76.9305 31 79.336 31C81.8962 31 84.0565 29.2579 84.0565 25.0192V14.705H81.9867V15.6352V15.6352ZM79.4893 23.5809C77.9843 23.5809 76.7247 22.1241 76.7247 20.1187C76.7247 18.0947 77.9843 16.6176 79.4893 16.6176C80.9723 16.6176 82.1415 18.0947 82.1415 20.1187C82.1415 22.1241 80.9723 23.5809 79.4893 23.5809V23.5809ZM107.958 8.61277H102.736V25.4935H104.914V19.0974H107.958C110.377 19.0974 112.749 17.0734 112.749 13.8542C112.749 10.6368 110.371 8.61277 107.958 8.61277V8.61277ZM108.015 16.7493H104.914V10.9609H108.015C109.641 10.9609 110.57 12.5224 110.57 13.8542C110.57 15.1608 109.641 16.7493 108.015 16.7493ZM121.478 14.3235C119.904 14.3235 118.268 15.127 117.595 16.908L119.528 17.8448C119.944 16.908 120.709 16.6041 121.517 16.6041C122.647 16.6041 123.793 17.3891 123.81 18.775V18.9522C123.416 18.6889 122.573 18.2989 121.535 18.2989C119.453 18.2989 117.332 19.6241 117.332 22.0971C117.332 24.3591 119.037 25.8159 120.954 25.8159C122.419 25.8159 123.228 25.0512 123.736 24.1616H123.81V25.4665H125.914V18.991C125.914 15.9981 123.981 14.3235 121.478 14.3235ZM121.215 23.5742C120.503 23.5742 119.51 23.1657 119.51 22.1444C119.51 20.8378 120.748 20.3364 121.819 20.3364C122.778 20.3364 123.228 20.5812 123.81 20.9036C123.64 22.4668 122.476 23.5742 121.215 23.5742V23.5742ZM133.577 14.6932L131.074 22.011H130.999L128.411 14.6932H126.063L129.951 24.9196L127.732 30.6101H130.008L136 14.6932H133.577V14.6932ZM113.946 25.4935H116.13V8.61277H113.946V25.4935Z" fill="white"/>
<path d="M0.541191 0.877589C0.198387 1.22795 0 1.77343 0 2.47984V27.6773C0 28.3837 0.198387 28.9292 0.541191 29.2795L0.625798 29.3564L15.0877 15.2424V14.9091L0.625798 0.794984L0.541191 0.877589Z" fill="url(#paint0_linear_20005144_584)"/>
<path d="M19.9022 19.9492L15.0869 15.2421V14.9089L19.908 10.2018L20.016 10.263L25.7255 13.4348C27.3549 14.3349 27.3549 15.8161 25.7255 16.7219L20.016 19.888L19.9022 19.9492Z" fill="url(#paint1_linear_20005144_584)"/>
<path d="M20.0157 19.888L15.0866 15.0756L0.540039 29.2794C1.08123 29.8348 1.96377 29.9018 2.96738 29.3463L20.0157 19.888Z" fill="url(#paint2_linear_20005144_584)"/>
<path d="M20.0157 10.2632L2.96738 0.804926C1.96377 0.255174 1.08123 0.322111 0.540039 0.87756L15.0866 15.0757L20.0157 10.2632Z" fill="url(#paint3_linear_20005144_584)"/>
<defs>
<linearGradient id="paint0_linear_20005144_584" x1="13.8037" y1="27.9397" x2="-5.3124" y2="8.3604" gradientUnits="userSpaceOnUse">
<stop stop-color="#00A0FF"/>
<stop offset="0.0066" stop-color="#00A1FF"/>
<stop offset="0.2601" stop-color="#00BEFF"/>
<stop offset="0.5122" stop-color="#00D2FF"/>
<stop offset="0.7604" stop-color="#00DFFF"/>
<stop offset="1" stop-color="#00E3FF"/>
</linearGradient>
<linearGradient id="paint1_linear_20005144_584" x1="27.8473" y1="15.0739" x2="-0.390296" y2="15.0739" gradientUnits="userSpaceOnUse">
<stop stop-color="#FFE000"/>
<stop offset="0.4087" stop-color="#FFBD00"/>
<stop offset="0.7754" stop-color="#FFA500"/>
<stop offset="1" stop-color="#FF9C00"/>
</linearGradient>
<linearGradient id="paint2_linear_20005144_584" x1="17.3354" y1="12.4594" x2="-8.5876" y2="-14.0917" gradientUnits="userSpaceOnUse">
<stop stop-color="#FF3A44"/>
<stop offset="1" stop-color="#C31162"/>
</linearGradient>
<linearGradient id="paint3_linear_20005144_584" x1="-3.12163" y1="37.6626" x2="8.45414" y2="25.8064" gradientUnits="userSpaceOnUse">
<stop stop-color="#32A071"/>
<stop offset="0.0685" stop-color="#2DA771"/>
<stop offset="0.4762" stop-color="#15CF74"/>
<stop offset="0.8009" stop-color="#06E775"/>
<stop offset="1" stop-color="#00F076"/>
</linearGradient>
</defs>
</svg>
