<svg width="143" height="52" viewBox="0 0 143 52" fill="none" xmlns="http://www.w3.org/2000/svg">
<g clip-path="url(#clip0_20005128_15038)">
<g clip-path="url(#clip1_20005128_15038)">
<g clip-path="url(#clip2_20005128_15038)">
<path d="M10.2 26L4.09998 16.3L23 4L22.5 14.7L10.2 26Z" fill="url(#paint0_linear_20005128_15038)"/>
<path d="M22.5 14.7L23 4L42.4 12.7L38.2999 30.1L12.2 34.2L10.2 26L22.5 14.7Z" fill="url(#paint1_linear_20005128_15038)"/>
<path d="M31.2001 48.0001L12.3 34.2001L38.4001 30.1001L43 34.7001L31.2001 48.0001Z" fill="url(#paint2_linear_20005128_15038)"/>
<path d="M38.3 30.1L42.9001 34.7L47 21.9L42.4001 12.7L38.3 30.1Z" fill="url(#paint3_linear_20005128_15038)"/>
<path d="M12.3 34.2001L31.2 48.0001L12.3 45.4001L0 30.6001L12.3 34.2001Z" fill="url(#paint4_linear_20005128_15038)"/>
<path d="M4.1 16.3L0 30.6L12.3 34.2001L10.3 26L4.1 16.3Z" fill="url(#paint5_linear_20005128_15038)"/>
<path d="M31.2001 48.0001L12.3 34.2001L38.4001 30.1001L43 34.7001L31.2001 48.0001Z" fill="black" fill-opacity="0.17"/>
<path d="M38.3 30.1L42.9001 34.7L47 21.9L42.4001 12.7L38.3 30.1Z" fill="black" fill-opacity="0.1"/>
<path d="M12.3 34.2001L31.2 48.0001L12.3 45.4001L0 30.6001L12.3 34.2001Z" fill="black" fill-opacity="0.23"/>
<path d="M4.1 16.3L0 30.6L12.3 34.2001L10.3 26L4.1 16.3Z" fill="#C0C0C0" fill-opacity="0.05"/>
<path d="M10.2 26L4.09998 16.3L23 4L22.5 14.7L10.2 26Z" fill="white" fill-opacity="0.15"/>
<path fill-rule="evenodd" clip-rule="evenodd" d="M10.2 26L22.5 14.7L23 4L4.09998 16.3L10.2 26ZM10.3 25.5L22.2 14.6L22.7 4.6L4.49998 16.4L10.3 25.5Z" fill="white" fill-opacity="0.15"/>
<path fill-rule="evenodd" clip-rule="evenodd" d="M22.8 14.9L10.6 26.1L12.5 33.8L38.0999 29.8L42.0999 12.9L23.3 4.5L22.8 14.9ZM22.5 14.7L10.2 26L12.2 34.2L38.2999 30.1L42.4 12.7L23 4L22.5 14.7Z" fill="white" fill-opacity="0.15"/>
<path fill-rule="evenodd" clip-rule="evenodd" d="M31.1 47.6001L42.5 34.7001L38.2 30.4001L13 34.4001L31.1 47.6001ZM31.2 48.0001L42.9 34.7001L38.2999 30.1001L12.2 34.2001L31.2 48.0001Z" fill="white" fill-opacity="0.15"/>
<path fill-rule="evenodd" clip-rule="evenodd" d="M42.9001 34.7L47 21.9L42.4001 12.7L38.3 30.1L42.9001 34.7ZM38.7001 30L42.8 34.1L46.7001 21.9L42.5 13.6L38.7001 30Z" fill="white" fill-opacity="0.15"/>
<path fill-rule="evenodd" clip-rule="evenodd" d="M12.1 34.5001L0.9 31.2001L12.4 45.2001L30 47.5001L12.1 34.5001ZM12.3 34.2001L0 30.6001L12.3 45.4001L31.2 48.0001L12.3 34.2001Z" fill="white" fill-opacity="0.15"/>
<path fill-rule="evenodd" clip-rule="evenodd" d="M0.4 30.4L11.9 33.7001L10 26.1L4.2 17L0.4 30.4ZM0 30.6L12.3 34.2001L10.3 26L4.2 16.3L0 30.6Z" fill="white" fill-opacity="0.15"/>
<path d="M23.7 23H27.2C27.1 19.9 24.6 17.8 20.8 17.8C17 17.8 14.3 19.9 14.3 23C14.3 25.5 16.1 27 19 27.7L20.9 28.2C22.8 28.7 23.8 29.2 23.8 30.3C23.8 31.6 22.6 32.4 20.8 32.4C18.9 32.4 17.6 31.5 17.4 29.8H13.9C14 33.5 16.6 35.4 20.8 35.4C25 35.4 27.4 33.4 27.4 30.3C27.4 27.4 25.2 25.9 22.3 25.3L20.8 24.9C19.2 24.6 18 24 18 22.8C18 21.7 19 20.9 20.7 20.9C22.5 20.9 23.6 21.7 23.7 23Z" fill="white"/>
<path d="M32.5 23.3H29.3V35.2001H32.5V23.3Z" fill="white"/>
<path d="M31.3 13.8999H30.1L28.6 14.7999V15.9999L30 15.0999V19.8999H31.3V13.8999Z" fill="white"/>
<path d="M32.7 18.7999H35.5999V19.7999H36.7999V18.7999H37.5V17.7999H36.7999V13.8999H35.2L32.7 17.7999V18.7999ZM35.5999 17.7999H34L35.5999 15.2999V17.7999Z" fill="white"/>
</g>
</g>
</g>
<path d="M61.3188 33.9709C60.1775 33.9709 59.1467 33.7712 58.2265 33.3717C57.3134 32.9651 56.5609 32.3873 55.9688 31.6383C55.3839 30.8822 55.0129 29.9834 54.856 28.9419L57.8948 28.4925C58.1088 29.377 58.5511 30.0583 59.2216 30.5362C59.8921 31.0141 60.6554 31.2531 61.5114 31.2531C61.9893 31.2531 62.453 31.1782 62.9024 31.0284C63.3518 30.8786 63.7192 30.6575 64.0045 30.365C64.297 30.0725 64.4432 29.7123 64.4432 29.2843C64.4432 29.1274 64.4182 28.9776 64.3683 28.8349C64.3255 28.6851 64.2506 28.546 64.1436 28.4176C64.0366 28.2892 63.8832 28.1679 63.6835 28.0538C63.4909 27.9397 63.2448 27.8362 62.9452 27.7435L58.9434 26.5665C58.6438 26.4809 58.2943 26.3596 57.8948 26.2027C57.5025 26.0458 57.1208 25.8211 56.7499 25.5286C56.379 25.2361 56.0687 24.8509 55.819 24.373C55.5765 23.8879 55.4552 23.278 55.4552 22.5433C55.4552 21.509 55.7156 20.6494 56.2363 19.9646C56.757 19.2798 57.4525 18.7698 58.3228 18.4345C59.1931 18.0992 60.1561 17.9352 61.2118 17.9423C62.2747 17.9566 63.2234 18.1385 64.058 18.488C64.8926 18.8375 65.5917 19.3476 66.1552 20.0181C66.7187 20.6815 67.1253 21.4947 67.375 22.4577L64.2292 22.9927C64.1151 22.4934 63.9046 22.0725 63.5979 21.7301C63.2912 21.3877 62.9238 21.1273 62.4958 20.949C62.0749 20.7707 61.6327 20.6744 61.169 20.6601C60.7125 20.6458 60.2809 20.71 59.8743 20.8527C59.4748 20.9882 59.1467 21.188 58.8899 21.4519C58.6402 21.7158 58.5154 22.0297 58.5154 22.3935C58.5154 22.7288 58.6188 23.0034 58.8257 23.2174C59.0326 23.4243 59.2929 23.5919 59.6068 23.7203C59.9207 23.8487 60.2417 23.9557 60.5698 24.0413L63.2448 24.7689C63.6443 24.8759 64.0865 25.0186 64.5716 25.1969C65.0567 25.3681 65.5203 25.6106 65.9626 25.9245C66.412 26.2312 66.7794 26.6378 67.0647 27.1443C67.3572 27.6508 67.5034 28.2928 67.5034 29.0703C67.5034 29.8978 67.3286 30.6218 66.9791 31.2424C66.6367 31.8559 66.173 32.3659 65.5881 32.7725C65.0032 33.172 64.3398 33.4716 63.5979 33.6713C62.8632 33.871 62.1035 33.9709 61.3188 33.9709ZM70.0692 20.4889V17.9209H72.9796V20.4889H70.0692ZM70.0692 33.6499V22.0939H72.9796V33.6499H70.0692ZM76.4015 33.6499V17.9209H79.3119V33.6499H76.4015ZM82.7337 20.4889V17.9209H85.6441V20.4889H82.7337ZM82.7337 33.6499V22.0939H85.6441V33.6499H82.7337ZM93.9451 33.9709C92.7467 33.9709 91.7195 33.7034 90.8635 33.1684C90.0075 32.6334 89.3512 31.9058 88.8947 30.9856C88.4382 30.0654 88.2099 29.0275 88.2099 27.8719C88.2099 26.702 88.4453 25.657 88.9161 24.7368C89.394 23.8166 90.0646 23.0926 90.9277 22.5647C91.7908 22.0368 92.8109 21.7729 93.9879 21.7729C95.3504 21.7729 96.4917 22.1189 97.4119 22.8108C98.3392 23.4956 98.9313 24.4336 99.1881 25.6249L96.2777 26.3953C96.1065 25.7961 95.8069 25.3289 95.3789 24.9936C94.958 24.6583 94.4801 24.4907 93.9451 24.4907C93.3316 24.4907 92.8287 24.6405 92.4364 24.9401C92.0441 25.2326 91.7552 25.6356 91.5697 26.1492C91.3842 26.6557 91.2915 27.2299 91.2915 27.8719C91.2915 28.8777 91.5126 29.6945 91.9549 30.3222C92.4043 30.9428 93.0677 31.2531 93.9451 31.2531C94.6014 31.2531 95.1007 31.1033 95.4431 30.8037C95.7855 30.5041 96.0423 30.0761 96.2135 29.5197L99.1881 30.1403C98.86 31.3672 98.2394 32.3124 97.3263 32.9758C96.4132 33.6392 95.2862 33.9709 93.9451 33.9709ZM106.215 33.9709C105.052 33.9709 104.032 33.7105 103.155 33.1898C102.277 32.6691 101.593 31.9522 101.1 31.0391C100.615 30.1189 100.373 29.0632 100.373 27.8719C100.373 26.6664 100.622 25.6071 101.122 24.694C101.621 23.7738 102.309 23.0569 103.187 22.5433C104.064 22.0297 105.074 21.7729 106.215 21.7729C107.378 21.7729 108.398 22.0333 109.275 22.554C110.16 23.0747 110.848 23.7952 111.34 24.7154C111.832 25.6285 112.079 26.6806 112.079 27.8719C112.079 29.0703 111.829 30.1296 111.33 31.0498C110.837 31.9629 110.149 32.6798 109.264 33.2005C108.387 33.7141 107.371 33.9709 106.215 33.9709ZM106.215 31.2531C107.149 31.2531 107.845 30.9392 108.301 30.3115C108.765 29.6766 108.997 28.8634 108.997 27.8719C108.997 26.8447 108.762 26.0244 108.291 25.4109C107.827 24.7974 107.135 24.4907 106.215 24.4907C105.58 24.4907 105.059 24.6334 104.653 24.9187C104.246 25.204 103.943 25.5999 103.743 26.1064C103.551 26.6129 103.454 27.2014 103.454 27.8719C103.454 28.9062 103.686 29.7301 104.15 30.3436C104.621 30.9499 105.309 31.2531 106.215 31.2531ZM122.307 33.6499V28.1929C122.307 27.929 122.293 27.5937 122.264 27.1871C122.235 26.7734 122.146 26.3596 121.996 25.9459C121.847 25.5322 121.601 25.1862 121.258 24.908C120.923 24.6298 120.445 24.4907 119.824 24.4907C119.575 24.4907 119.307 24.5299 119.022 24.6084C118.737 24.6869 118.469 24.8402 118.219 25.0685C117.97 25.2896 117.763 25.6178 117.599 26.0529C117.442 26.488 117.363 27.0658 117.363 27.7863L115.694 26.9945C115.694 26.0814 115.88 25.2254 116.251 24.4265C116.622 23.6276 117.178 22.982 117.92 22.4898C118.669 21.9976 119.61 21.7515 120.745 21.7515C121.651 21.7515 122.389 21.9049 122.959 22.2116C123.53 22.5183 123.972 22.9071 124.286 23.3779C124.607 23.8487 124.836 24.3409 124.971 24.8545C125.107 25.361 125.189 25.8246 125.217 26.2455C125.246 26.6664 125.26 26.9731 125.26 27.1657V33.6499H122.307ZM114.41 33.6499V22.0939H117V25.9245H117.363V33.6499H114.41Z" fill="#131022"/>
<defs>
<linearGradient id="paint0_linear_20005128_15038" x1="-2.43962e-05" y1="15" x2="47" y2="15" gradientUnits="userSpaceOnUse">
<stop stop-color="#6366F1"/>
<stop offset="0.5" stop-color="#8B5CF6"/>
<stop offset="1" stop-color="#D946EF"/>
</linearGradient>
<linearGradient id="paint1_linear_20005128_15038" x1="-4.86304e-05" y1="19.1" x2="47" y2="19.1" gradientUnits="userSpaceOnUse">
<stop stop-color="#6366F1"/>
<stop offset="0.5" stop-color="#8B5CF6"/>
<stop offset="1" stop-color="#D946EF"/>
</linearGradient>
<linearGradient id="paint2_linear_20005128_15038" x1="4.91977e-05" y1="39.0501" x2="47" y2="39.0501" gradientUnits="userSpaceOnUse">
<stop stop-color="#6366F1"/>
<stop offset="0.5" stop-color="#8B5CF6"/>
<stop offset="1" stop-color="#D946EF"/>
</linearGradient>
<linearGradient id="paint3_linear_20005128_15038" x1="4.58639e-05" y1="23.7" x2="47.0001" y2="23.7" gradientUnits="userSpaceOnUse">
<stop stop-color="#6366F1"/>
<stop offset="0.5" stop-color="#8B5CF6"/>
<stop offset="1" stop-color="#D946EF"/>
</linearGradient>
<linearGradient id="paint4_linear_20005128_15038" x1="0" y1="39.3001" x2="47" y2="39.3001" gradientUnits="userSpaceOnUse">
<stop stop-color="#6366F1"/>
<stop offset="0.5" stop-color="#8B5CF6"/>
<stop offset="1" stop-color="#D946EF"/>
</linearGradient>
<linearGradient id="paint5_linear_20005128_15038" x1="0" y1="25.2501" x2="47" y2="25.2501" gradientUnits="userSpaceOnUse">
<stop stop-color="#6366F1"/>
<stop offset="0.5" stop-color="#8B5CF6"/>
<stop offset="1" stop-color="#D946EF"/>
</linearGradient>
<clipPath id="clip0_20005128_15038">
<rect width="47" height="44" fill="white" transform="translate(0 4)"/>
</clipPath>
<clipPath id="clip1_20005128_15038">
<rect width="47" height="44" fill="white" transform="translate(0 4)"/>
</clipPath>
<clipPath id="clip2_20005128_15038">
<rect width="47" height="44" fill="white" transform="translate(0 4)"/>
</clipPath>
</defs>
</svg>
