<svg width="78" height="79" viewBox="0 0 78 79" fill="none" xmlns="http://www.w3.org/2000/svg">
<g clip-path="url(#clip0_20005129_618)">
<g clip-path="url(#clip1_20005129_618)">
<g clip-path="url(#clip2_20005129_618)">
<mask id="mask0_20005129_618" style="mask-type:luminance" maskUnits="userSpaceOnUse" x="0" y="0" width="78" height="79">
<path d="M0 0.549988H78V78.55H0V0.549988Z" fill="white"/>
</mask>
<g mask="url(#mask0_20005129_618)">
<path d="M47.176 65.55C47.176 72.73 41.355 78.55 34.176 78.55C26.997 78.55 21.176 72.73 21.176 65.55C21.176 58.37 26.996 52.55 34.176 52.55C41.356 52.55 47.176 58.371 47.176 65.55Z" fill="#FFBA08"/>
<path opacity="0.3" d="M47.176 65.55C47.176 72.73 41.355 78.55 34.176 78.55C26.997 78.55 21.176 72.73 21.176 65.55C21.176 58.37 26.996 52.55 34.176 52.55C41.356 52.55 47.176 58.371 47.176 65.55Z" fill="#EF4444"/>
<path d="M56.952 39.294C45.934 37.72 37.426 28.247 37.426 16.8C37.4258 13.6547 38.0822 10.5441 39.353 7.66699C37.689 7.27699 35.96 7.04999 34.176 7.04999C21.631 7.04999 11.426 17.255 11.426 29.8V38.861C11.4273 42.0394 10.7333 45.1795 9.39261 48.0613C8.05191 50.9431 6.09702 53.4967 3.66503 55.543C2.40103 56.622 1.67603 58.198 1.67603 59.862C1.67603 62.999 4.22703 65.55 7.36303 65.55H60.988C64.125 65.55 66.676 62.999 66.676 59.862C66.676 58.198 65.951 56.622 64.654 55.514C62.2899 53.5141 60.3798 51.0327 59.0515 48.2356C57.7231 45.4385 57.008 42.39 56.952 39.294Z" fill="url(#paint0_linear_20005129_618)"/>
<path d="M76.426 16.8C76.426 25.775 69.15 33.05 60.176 33.05C51.202 33.05 43.926 25.775 43.926 16.8C43.926 7.82499 51.201 0.549988 60.176 0.549988C69.151 0.549988 76.426 7.82599 76.426 16.8Z" fill="url(#paint1_linear_20005129_618)"/>
</g>
</g>
</g>
</g>
<defs>
<linearGradient id="paint0_linear_20005129_618" x1="-2.49997" y1="54.551" x2="59.5" y2="19.551" gradientUnits="userSpaceOnUse">
<stop stop-color="#FFBA08"/>
<stop offset="1" stop-color="#FFDB7E"/>
</linearGradient>
<linearGradient id="paint1_linear_20005129_618" x1="42.5" y1="38.05" x2="60" y2="-0.950012" gradientUnits="userSpaceOnUse">
<stop stop-color="#7A1CD0"/>
<stop offset="1" stop-color="#6366F1"/>
</linearGradient>
<clipPath id="clip0_20005129_618">
<rect width="78" height="78" fill="white" transform="translate(0 0.549988)"/>
</clipPath>
<clipPath id="clip1_20005129_618">
<rect width="78" height="78" fill="white" transform="translate(0 0.549988)"/>
</clipPath>
<clipPath id="clip2_20005129_618">
<rect width="78" height="78" fill="white" transform="translate(0 0.549988)"/>
</clipPath>
</defs>
</svg>
