<svg width="28" height="28" viewBox="0 0 28 28" fill="none" xmlns="http://www.w3.org/2000/svg">
<g clip-path="url(#clip0_4632_11162)">
<path d="M13.9452 28C13.7775 28 13.6101 27.9615 13.456 27.8846C13.3281 27.8206 10.2865 26.2784 7.10417 22.8192C5.23882 20.7919 3.70671 18.5186 2.55016 16.0625C1.10564 12.9949 0.24837 9.63632 0.00163502 6.08014C-0.0184455 5.79004 0.0778984 5.504 0.269091 5.28503C0.460497 5.06607 0.730944 4.93213 1.02126 4.91312C3.0244 4.78152 4.59368 3.10394 4.59368 1.09375C4.59368 0.489624 5.0833 0 5.68743 0H22.3124C22.9163 0 23.4062 0.489624 23.4062 1.09375C23.4062 3.10266 24.9744 4.78024 26.9765 4.91312C27.2713 4.93256 27.5455 5.07056 27.737 5.2955C27.9286 5.52045 28.0209 5.81332 27.9931 6.10748C27.619 10.0561 26.5287 13.7492 24.7522 17.0845C24.4681 17.6177 23.8057 17.8196 23.2727 17.5357C22.7395 17.2518 22.5376 16.5893 22.8215 16.0561C24.3096 13.2624 25.2767 10.1905 25.702 6.91156C23.4624 6.32111 21.7418 4.46899 21.3189 2.1875H6.68099C6.2563 4.47882 4.52318 6.3367 2.26967 6.91882C2.84453 12.4367 4.98931 17.2612 8.65294 21.2717C10.846 23.6722 12.9961 25.0885 13.939 25.6491C14.9708 25.0215 17.4662 23.3349 19.8955 20.4106C20.2815 19.9458 20.9709 19.8821 21.4357 20.2681C21.9003 20.6541 21.9642 21.3437 21.5782 21.8083C18.1209 25.9702 14.5921 27.8039 14.4434 27.8799C14.287 27.9601 14.1161 28 13.9452 28ZM14.7912 22.0809C15.1554 21.5988 15.0599 20.9131 14.5782 20.5488C13.6325 19.8343 12.7376 19.024 11.9182 18.1409C9.53563 15.5723 7.91915 12.5544 7.10717 9.16165C7.54467 8.8237 7.95632 8.45029 8.33635 8.04611C8.96654 7.37555 9.50466 6.6268 9.93575 5.82016C10.2203 5.28738 10.0191 4.62473 9.48629 4.33997C8.95351 4.05542 8.29085 4.25665 8.0063 4.78943C7.666 5.42603 7.24089 6.01755 6.74272 6.54776C6.30351 7.01495 5.81133 7.4296 5.28026 7.78058C4.9077 8.02667 4.72206 8.47464 4.81157 8.91235C5.64427 12.9842 7.49553 16.5898 10.3145 19.6285C11.2207 20.6054 12.2115 21.5024 13.2593 22.2941C13.4567 22.4432 13.6883 22.5152 13.9179 22.5152C14.249 22.5152 14.5763 22.3655 14.7912 22.0809Z" fill="url(#paint0_linear_4632_11162)"/>
</g>
<defs>
<linearGradient id="paint0_linear_4632_11162" x1="-0.000976563" y1="14.067" x2="27.9979" y2="14.067" gradientUnits="userSpaceOnUse">
<stop stop-color="#6366F1"/>
<stop offset="0.5" stop-color="#8B5CF6"/>
<stop offset="1" stop-color="#D946EF"/>
</linearGradient>
<clipPath id="clip0_4632_11162">
<rect width="28" height="28" fill="white"/>
</clipPath>
</defs>
</svg>
